<svg width="107" height="100" viewBox="0 0 107 100" fill="none" xmlns="http://www.w3.org/2000/svg">
<path d="M49.0417 91.6667C44.8062 91.6667 41.0167 89.5833 39.0104 87.0833C34.5521 87.7083 28.9792 86.6667 26.5271 83.3333C22.5146 78.3333 23.8521 72.9167 24.7437 70.625C24.7437 70.4167 24.9667 70.2083 24.9667 70.2083L31.2083 61.4583C31.6542 60.625 32.7687 60.4167 33.6604 60.625L61.0792 70.625C62.1937 70.8333 62.6396 71.875 62.6396 72.9167L59.9646 86.4583C59.9646 86.875 59.7417 87.0833 59.5187 87.2917C59.2958 87.5 56.3979 91.0417 50.3792 91.4583C49.9333 91.6667 49.4875 91.6667 49.0417 91.6667Z" fill="#558B2F"/>
<path d="M54.6145 85.4167C53.5 84.1667 52.6083 82.7083 52.1625 81.25C51.9395 80.8333 51.9395 80.4167 51.7166 80C51.4937 79.5833 51.2708 78.5417 50.825 76.875C49.2645 76.6667 47.7041 76.25 46.1437 75.625C45.6979 75.4167 45.475 75.4167 45.0291 75.2083L43.6916 74.5833C43.2458 74.375 43.0229 74.375 42.577 74.1667C41.0166 73.5417 39.6791 72.7083 38.3416 71.875C37.0041 72.7083 35.4437 73.3333 33.8833 73.5417H33.4375C32.7687 73.75 31.2083 73.9583 29.425 73.9583C27.8645 73.9583 25.8583 73.75 24.075 73.125C28.0875 77.7083 32.7687 77.9167 34.775 77.5C35.8895 77.2917 37.0041 77.0833 38.1187 76.4583C40.7937 78.125 43.9145 79.375 47.2583 80.2083C47.4812 80.625 47.4812 80.8333 47.4812 81.25C48.8187 85.2083 53.5 88.75 58.4041 88.3333C56.8437 87.7083 55.7291 86.6667 54.6145 85.4167Z" fill="#33691E"/>
<path d="M29.425 73.75C25.8584 73.75 20.7313 72.9167 17.3875 68.5417C15.1584 65.4167 14.7125 59.7917 16.7188 56.0417C12.9292 52.9167 9.36254 46.25 11.8146 39.375C14.0438 32.9167 20.2855 30 24.5209 28.9583C24.5209 25.8333 25.4125 22.0833 28.7563 18.9583C34.5521 13.3333 42.1313 14.7917 42.5771 14.7917C43.6917 15 44.3605 16.0417 44.1375 17.0833L45.0292 66.0417C44.8063 66.875 39.2334 72.7083 33.8834 73.5417C33.8834 73.3333 31.8771 73.75 29.425 73.75Z" fill="#7CB342"/>
<path d="M92.7333 58.3334C89.3895 61.4584 84.7083 61.6667 82.0333 61.25C83.8166 57.7084 84.7083 53.9584 84.7083 50C84.7083 35 71.7791 22.9167 55.7291 22.9167C49.2645 22.9167 43.4687 24.7917 38.7875 28.125C37.6729 26.875 37.0041 24.7917 36.7812 23.3334V23.125V22.2917C36.7812 21.6667 36.7812 21.0417 37.0041 20.4167V20.2084C37.227 19.5834 37.227 18.9584 37.45 18.5417C37.45 18.5417 37.45 18.3334 37.6729 18.3334C37.8958 17.7084 38.1187 17.2917 38.5645 16.6667V16.4584C39.0104 15.8334 39.4562 15.4167 39.902 14.7917C37.45 15.8334 32.7687 18.5417 32.1 22.5C32.1 24.5834 32.3229 26.25 32.7687 27.5C26.3041 32.9167 22.2916 41.0417 22.2916 50C22.2916 59.375 26.75 67.7084 33.6604 73.3334H34.1062C35.6666 73.125 37.0041 72.5 38.5645 71.6667C42.1312 74.1667 46.3666 75.8334 51.0479 76.6667C51.4937 78.3334 51.9395 79.5834 51.9395 79.7917C53.277 84.375 56.6208 87.9167 60.8562 89.1667C61.9708 89.375 63.3083 89.5834 64.6458 89.5834C67.0979 89.5834 69.9958 88.9584 72.002 87.7084C75.1229 88.75 80.4729 88.9584 84.2625 86.875C88.052 84.7917 90.2812 79.5834 89.6125 75.625C92.9562 73.9584 94.9625 71.4584 95.8541 68.3334C96.5229 65 95.4083 60.8334 92.7333 58.3334Z" fill="#689F38"/>
<path d="M82.0333 61.25C78.4666 68.5417 71.3333 74.1667 62.8625 76.25H62.6396C61.525 76.4584 60.6333 76.6667 59.5187 76.875H59.2958C57.9583 77.0834 56.8437 77.0834 55.7291 77.0834C54.8375 77.0834 53.9458 77.0834 53.0541 76.875C52.6083 76.875 51.9395 76.6667 51.4937 76.6667H50.6021C51.0479 78.3334 51.4937 79.5834 51.4937 79.7917C51.7166 80.2084 51.7166 80.625 51.9396 81.0417C53.2771 81.25 54.3916 81.25 55.7291 81.25C67.9895 81.25 78.6896 75 84.4854 65.8334C87.6062 65.625 91.6187 62.9167 92.7333 58.5417C92.2875 58.9584 91.8416 59.1667 91.3958 59.5834C88.275 61.4584 84.4854 61.4584 82.0333 61.25Z" fill="#558B2F"/>
<path d="M78.0208 58.3334C75.7916 57.5 70.2187 58.5417 67.7666 63.3334C64.2 60.4167 58.6271 62.2917 56.3979 65.2084C55.5062 62.5 53.0541 53.5417 42.3541 56.0417L27.1958 54.7917C29.6479 67.5 41.4625 77.0834 55.7291 77.0834C68.8812 77.0834 79.8041 68.9584 83.3708 57.7084L78.0208 58.3334Z" fill="#9CCC65"/>
<path d="M47.0354 55.8333C46.5895 57.7083 45.9208 59.375 44.5833 60.4167C42.3541 62.0833 39.0104 62.7083 38.3416 62.5C37.227 63.75 35.6666 64.7917 34.1062 65.2083C33.4374 65.4167 32.7687 65.4167 31.877 65.4167C30.7624 63.9583 29.8708 62.5 29.202 60.8333C30.0937 61.0417 30.9854 61.25 31.877 61.25C32.3229 61.25 32.5458 61.25 32.7687 61.0417C34.3291 60.625 35.6666 58.9583 36.3354 57.2917C37.4499 57.9167 38.7874 58.5417 40.5708 58.5417C41.4624 58.5417 42.3541 58.3333 43.4687 57.9167C44.3604 57.5 45.252 56.6667 45.9208 55.625C46.1437 55.8333 46.5895 55.8333 47.0354 55.8333ZM75.7916 58.125C75.1229 58.125 74.4541 58.3333 73.7854 58.5417C74.677 61.4583 77.1291 64.1667 79.8041 65C80.6958 63.75 81.3645 62.5 82.0333 61.25C79.5812 60.8333 77.352 59.7917 75.7916 58.125Z" fill="#7CB342"/>
<path d="M93.4021 43.3334C96.5229 38.3334 96.7458 31.875 93.4021 27.7084C90.7271 24.1667 86.2688 22.2917 81.3646 22.5C81.5875 17.0834 78.2438 11.25 68.4354 8.75002C64.6458 7.91668 59.0729 8.75002 55.2833 11.875C51.0479 9.58335 44.1375 10.8334 40.7937 13.5417C37.8958 16.0417 36.3354 18.9584 36.5583 22.2917C36.5583 23.75 37.2271 26.6667 38.5646 28.125C31.4313 32.9167 26.75 41.0417 26.75 50C26.75 53.9584 27.6417 57.5 29.2021 60.8334C30.3167 61.25 31.8771 61.4584 32.9917 61.25C34.5521 60.8334 35.8896 59.1667 36.5583 57.5C38.1188 58.3334 40.5708 59.375 43.6917 58.125C45.6979 57.2917 47.4813 54.1667 47.0354 52.2917C51.9396 55.8334 61.7479 50.625 58.1812 41.875L62.6396 31.4584L59.2958 23.3334C58.85 23.3334 58.4042 23.3334 57.9583 23.125C72.8938 24.1667 84.7083 35.8334 84.7083 50.2084C84.7083 54.1667 83.8167 58.125 82.0333 61.4583C85.1542 61.6667 90.5042 61.6667 93.8479 57.2917C95.6313 55 96.0771 50.4167 95.1854 47.0834C94.7396 45.4167 94.2937 44.1667 93.4021 43.3334Z" fill="#AED581"/>
<path d="M55.7291 18.75C48.8187 18.75 42.3542 20.8333 37.0042 24.1667C37.2271 25.625 37.8958 27.0833 38.7875 28.125C40.3479 27.0833 41.9083 26.25 43.6917 25.4167C43.0229 28.5417 43.4687 31.6667 45.0292 34.375C46.5896 36.875 49.0417 38.75 51.9396 39.7917C51.9396 40.8333 51.4937 43.9583 54.6146 46.6667C55.7292 47.5 56.8437 48.125 58.1812 48.5417C58.4042 47.9167 58.85 47.0833 58.85 46.25L57.9583 45.4167C55.9521 42.9167 55.9521 39.375 57.2896 36.4583H56.8437C50.1562 36.4583 45.0292 30.2083 49.0417 23.5417H48.8187C51.0479 23.125 53.2771 22.7083 55.7291 22.7083C71.7792 22.7083 84.7083 34.7917 84.7083 49.7917C84.7083 53.75 83.8167 57.7083 82.0333 61.0417C83.3708 61.25 85.1542 61.25 86.9375 60.8333C88.275 57.2917 89.1667 53.5417 89.1667 49.5833C89.1667 32.7083 74.0083 18.75 55.7291 18.75Z" fill="#8BC34A"/>
<path d="M84.7084 50C84.7084 35 71.7792 22.9167 55.7292 22.9167C53.5 22.9167 51.2709 23.125 49.0417 23.75C45.0292 30.4167 50.3792 36.875 57.2896 36.6667C55.9521 39.5834 55.9521 43.125 57.9584 45.625C59.9646 48.125 63.7542 48.3334 67.098 48.125C66.6521 49.7917 66.875 52.7084 68.2125 53.75C69.55 54.7917 72.448 54.7917 73.7855 54.375C74.9001 58.5417 78.4667 60.8334 82.0334 61.4584C83.5938 57.9167 84.7084 53.9584 84.7084 50Z" fill="#DCEDC8"/>
<path d="M69.1042 26.0417L70.2187 27.2917L71.5562 28.9584C71.5562 28.9584 71.7792 29.1667 72.0021 29.5834C72.225 29.7917 72.225 30 72.4479 30.4167C72.6708 30.625 72.6708 30.8334 72.8937 31.25C73.1167 31.4584 73.1167 31.875 73.3396 32.2917C73.5625 32.7084 73.5625 33.125 73.5625 33.5417V35C73.5625 35.4167 73.5625 36.0417 73.3396 36.4584C72.8937 38.5417 71.7792 40.4167 70.6646 41.6667C69.55 42.9167 68.6583 43.75 68.6583 43.75C68.6583 43.75 69.7729 43.125 71.1104 42.0834C72.4479 41.0417 74.2312 39.1667 75.3458 37.0834C75.5687 36.4584 75.7917 36.0417 76.0146 35.4167C76.2375 34.7917 76.2375 34.1667 76.4604 33.5417V31.875V31.6667C74.4542 29.375 72.0021 27.5 69.1042 26.0417Z" fill="#AED581"/>
</svg>
