<svg width="65" height="109" viewBox="0 0 65 109" fill="none" xmlns="http://www.w3.org/2000/svg">
<path d="M1.01562 28.9708L28.4375 59.6449H36.5625L63.9845 28.9797" fill="#5A8100"/>
<path d="M0 27.2498V81.75H65V27.2498H0ZM17.736 49.5997L2.03138 75.9353V32.0643L17.736 49.5997ZM4.38026 30.6562H60.6044L36.2598 57.8554H28.7402L4.38026 30.6562ZM19.4604 51.5251L28.1348 61.2107H36.8652L45.5375 51.5214L61.5324 78.3438H3.4676L19.4604 51.5251ZM47.2616 49.5954L62.9688 32.0464V75.9349L47.2616 49.5954Z" fill="#013328"/>
<path d="M33.5672 34.1442H21.2949V37.4996H33.5672V34.1442Z" fill="#FF6E04"/>
<path d="M37.569 34.1442H35.5681V37.4996H37.569V34.1442Z" fill="#FBA218"/>
<path d="M40.6371 34.1442H38.6362V37.4996H40.6371V34.1442Z" fill="#013328"/>
<path d="M43.7053 34.1442H41.7043V37.4996H43.7053V34.1442Z" fill="#FBA218"/>
<path d="M39.57 40.855H25.4302V44.2104H39.57V40.855Z" fill="#FBA218"/>
<path d="M30.4992 47.7895H28.4983V51.1449H30.4992V47.7895Z" fill="#013328"/>
<path d="M33.5672 47.7895H31.4329V51.1449H33.5672V47.7895Z" fill="#FF6E04"/>
<path d="M36.5019 47.7895H34.501V51.1449H36.5019V47.7895Z" fill="#013328"/>
</svg>
