<svg width="52" height="49" viewBox="0 0 52 49" fill="none" xmlns="http://www.w3.org/2000/svg">
<path d="M42.5751 7.65625C38.1876 3.82812 32.4188 1.53125 26 1.53125C19.5813 1.53125 13.8125 3.82812 9.42505 7.65625H42.5751Z" fill="#ED4C5C"/>
<path d="M9.42505 41.3438C13.8125 45.1719 19.5813 47.4688 26 47.4688C32.4188 47.4688 38.1876 45.1719 42.5751 41.3438H9.42505Z" fill="#ED4C5C"/>
<path d="M1.625 24.5C1.625 27.7922 2.35625 30.8547 3.65625 33.6875H48.3438C49.6437 30.8547 50.375 27.7922 50.375 24.5C50.375 21.2078 49.6437 18.1453 48.3438 15.3125H3.65625C2.35625 18.1453 1.625 21.2078 1.625 24.5Z" fill="#2A5F9E"/>
<path d="M9.42495 41.3438H42.4937C44.9312 39.2 46.9625 36.5969 48.2625 33.6875H3.57495C5.03745 36.5969 6.98745 39.2 9.42495 41.3438Z" fill="#F9F9F9"/>
<path d="M42.575 7.65625H9.425C6.9875 9.8 4.95625 12.4031 3.65625 15.3125H48.3438C46.9625 12.4031 45.0125 9.8 42.575 7.65625Z" fill="#F9F9F9"/>
</svg>
