<svg width="62" height="65" viewBox="0 0 62 65" fill="none" xmlns="http://www.w3.org/2000/svg">
<path d="M43.3296 60.9375H53.7374C55.7242 60.9375 58.125 59.2083 58.125 57.0597V7.94035C58.125 5.79179 55.7242 4.0625 53.7374 4.0625H6.88515C4.66235 4.0625 3.875 6.15037 3.875 7.94035V57.0597C3.875 58.8497 4.66235 60.9375 6.88515 60.9375H33.466V40.2557H24.8352C24.1536 40.2557 23.6023 39.6777 23.6023 38.9631V31.2074C23.6023 30.4929 24.1536 29.9147 24.8352 29.9147H33.4659V20.8665C33.4659 14.5599 38.7974 9.23305 45.1067 9.23305H51.9602C52.6418 9.23305 53.1932 9.81106 53.1932 10.5256V18.2812C53.1932 18.9959 52.6418 19.5739 51.9602 19.5739H47.5726C45.4872 19.5739 43.3296 20.7833 43.3296 22.8054V29.9148H51.2715C51.4669 29.9145 51.6595 29.9632 51.8334 30.0568C52.0072 30.1503 52.1572 30.286 52.271 30.4526C52.5044 30.7884 52.5671 31.2227 52.4419 31.6165L49.9759 39.3722C49.8937 39.6294 49.7365 39.853 49.5265 40.0116C49.3165 40.1701 49.0643 40.2555 48.8056 40.2557H43.3296V60.9375Z" fill="#5A8100"/>
<path d="M48.9041 28.6738H43.3295V29.9147H50.1282C50.1184 29.6648 50.0479 29.4191 49.9035 29.2115C49.7898 29.045 49.6398 28.9093 49.466 28.8157C49.2921 28.7222 49.0995 28.6736 48.9041 28.6738ZM31.0985 59.6966H4.56787C5.04347 60.4267 5.78813 60.9375 6.88506 60.9375H33.4659V40.2558H31.0986L31.0985 59.6966ZM50.8159 9.23306C50.7886 8.54402 50.257 7.99216 49.593 7.99216H42.7393C36.4301 7.99216 31.0985 13.319 31.0985 19.6256V28.6738H22.4678C21.7863 28.6738 21.2349 29.252 21.2349 29.9665V37.7222C21.2349 38.4368 21.7863 39.0148 22.4678 39.0148H23.6121C23.6114 38.9967 23.6022 38.9814 23.6022 38.9631V31.2074C23.6022 30.4929 24.1535 29.9147 24.8351 29.9147H33.4658V20.8665C33.4658 14.5599 38.7973 9.23306 45.1066 9.23306H50.8159Z" fill="#013328"/>
<path d="M54.4996 4.14191C55.2396 4.82491 55.7577 5.71282 55.7577 6.69938V55.8187C55.7577 57.9674 53.3569 59.6966 51.37 59.6966H43.3296V60.9375H53.7374C55.7242 60.9375 58.125 59.2083 58.125 57.0597V7.94034C58.125 6.06144 56.2891 4.50366 54.4996 4.14191Z" fill="#013328"/>
</svg>
