<svg width="98" height="104" viewBox="0 0 98 104" fill="none" xmlns="http://www.w3.org/2000/svg">
<path d="M49 103.942C76.062 103.942 98 80.674 98 51.9711C98 23.2683 76.062 0 49 0C21.9381 0 0 23.2683 0 51.9711C0 80.674 21.9381 103.942 49 103.942Z" fill="#2D5036"/>
<path d="M79.6476 35.4957L28.6787 88.9949L42.3156 103.459C44.5016 103.775 46.7322 103.942 49 103.942C75.1426 103.942 96.5013 82.2271 97.9225 54.8759L79.6476 35.4957Z" fill="#2D5036"/>
<path d="M31.1841 79.6089C31.8645 78.8873 32.3238 77.9672 32.5016 76.9645C33.671 70.3745 38.6822 44.5713 45.7706 42.6128C53.9023 40.366 55.6788 41.5982 59.3005 35.4377C62.9222 29.2774 74.0263 29.7481 79.5954 35.4377C84.9597 41.3445 85.4035 53.1218 79.5954 56.9632C73.7874 60.8045 74.9488 62.6887 72.8305 71.3135C70.984 78.8316 46.6559 84.1467 40.4426 85.387C39.4969 85.5756 38.6298 86.0628 37.9494 86.7844L35.6234 89.2514C33.7555 91.2326 30.7267 91.2326 28.8585 89.2514C26.9905 87.2702 26.9905 84.0578 28.8585 82.0762L31.1841 79.6089Z" fill="#5D993D"/>
<path d="M23.3669 76.4553C23.5863 75.4617 23.5196 74.423 23.1725 73.4714C20.8915 67.2174 12.3275 42.4875 17.378 36.861C23.1719 30.4061 25.2939 30.4596 25.3104 23.1998C25.3269 15.9399 34.9972 10.1328 42.5574 11.8543C50.0513 13.8754 56.281 23.6358 53.2542 30.1471C50.2271 36.6584 52.1505 37.6103 54.6365 46.1241C56.8034 53.5453 38.7697 71.6624 34.106 76.1897C33.3962 76.8788 32.9012 77.7775 32.6815 78.7711L31.9308 82.1676C31.328 84.8956 28.7539 86.5888 26.1818 85.9494C23.6097 85.31 22.0133 82.5798 22.6162 79.8518L23.3669 76.4553Z" fill="#86C867"/>
<path d="M79.5952 35.4377C74.026 29.7481 62.922 29.2774 59.3003 35.4377C56.2273 40.6649 54.4808 40.5704 49.0548 41.7942V83.4212C58.5387 80.9899 71.5018 76.7216 72.8299 71.3131C74.9483 62.6884 73.7864 60.8041 79.5948 56.9628C85.4032 53.1218 84.9594 41.3445 79.5952 35.4377Z" fill="#5D993D"/>
<path d="M54.6361 46.1238C52.1505 37.6103 50.2268 36.658 53.2539 30.1468C55.3198 25.7024 53.0721 19.7462 49.0551 15.7688V59.4823C52.8411 54.3408 55.5551 49.2707 54.6361 46.1238Z" fill="#86C867"/>
<path d="M26.8932 83.7379C26.7929 83.7379 26.691 83.7257 26.589 83.7001C25.8796 83.5227 25.4404 82.7688 25.6077 82.016L37.9976 26.3516C38.1649 25.5995 38.8743 25.132 39.5854 25.3108C40.2948 25.4882 40.734 26.2421 40.5667 26.9949L28.1768 82.6593C28.0333 83.3032 27.4915 83.7379 26.8932 83.7379Z" fill="#5D993D"/>
<path d="M31.5118 88.0184C31.1749 88.0184 30.838 87.8823 30.5806 87.6107C30.0642 87.0651 30.0622 86.1786 30.5763 85.6309L68.5125 45.2128C69.0266 44.6647 69.8628 44.6637 70.3792 45.2082C70.8956 45.7538 70.8975 46.6403 70.3835 47.188L32.4472 87.6062C32.1895 87.8809 31.8503 88.0184 31.5118 88.0184Z" fill="#86C867"/>
<path d="M70.3791 45.2082C69.8627 44.6633 69.0263 44.6644 68.5125 45.2128L49.0551 65.9431V69.9118L70.3834 47.188C70.8975 46.6403 70.8955 45.7535 70.3791 45.2082Z" fill="#86C867"/>
</svg>
