<svg width="34" height="31" viewBox="0 0 34 31" fill="none" xmlns="http://www.w3.org/2000/svg">
<g clip-path="url(#clip0_211_125)">
<path d="M16.9999 30.5156C7.90453 30.5156 0.53125 23.7929 0.53125 15.5C0.53125 7.20714 7.9046 0.484436 17 0.484436" fill="#2D5036"/>
<path d="M17 0.484436C26.0954 0.484436 33.4688 7.2072 33.4688 15.5001C33.4688 23.7929 26.0954 30.5157 17 30.5157" fill="#F14507"/>
<path d="M16.9997 30.5154C22.2472 30.5154 26.5011 23.7927 26.5011 15.4998C26.5011 7.20686 22.2472 0.484131 16.9997 0.484131C11.7522 0.484131 7.49829 7.20686 7.49829 15.4998C7.49829 23.7927 11.7522 30.5154 16.9997 30.5154Z" fill="#5A8100"/>
<path d="M17 0.484436C22.2474 0.484436 26.5012 7.2072 26.5012 15.5001C26.5012 23.7929 22.2474 30.5157 17 30.5157" fill="#FBA218"/>
<path d="M29.0207 4.54002C25.8099 1.61252 21.5408 0.000213623 16.9999 0.000213623C12.459 0.000213623 8.18995 1.61252 4.97907 4.54008C1.76833 7.46758 0 11.36 0 15.5002C0 19.6403 1.76833 23.5327 4.97921 26.4603C8.19008 29.3879 12.4591 31.0002 17.0001 31.0002C21.5409 31.0002 25.81 29.3879 29.0209 26.4603C32.2317 23.5327 34 19.6403 34 15.5002C34 11.36 32.2317 7.46758 29.0207 4.54002ZM28.2695 5.22505C31.1643 7.86435 32.8076 11.3404 32.9294 15.0548H27.0281C26.9573 11.1267 25.9521 7.44324 24.1786 4.64041C23.3534 3.33616 22.4033 2.28755 21.3678 1.51921C23.951 2.18644 26.3188 3.44642 28.2695 5.22505ZM16.4418 0.998087V15.0548H8.03469C8.10468 11.2951 9.05941 7.78339 10.7418 5.12454C12.302 2.65883 14.3084 1.21345 16.4418 0.998087ZM16.4418 16.0091V30.0022C14.3084 29.7868 12.302 28.3414 10.7418 25.8756C9.0689 23.2317 8.11571 19.7447 8.03615 16.0089H16.4418V16.0091ZM17.4884 30.0091V16.0091H25.9638C25.8843 19.7447 24.9311 23.2319 23.2582 25.8758C21.6809 28.3684 19.6478 29.8186 17.4884 30.0091ZM17.4884 15.0548V0.991245C19.6478 1.18179 21.6809 2.632 23.2581 5.1246C24.9405 7.78351 25.8953 11.2952 25.9652 15.0549L17.4884 15.0548ZM5.73053 5.22505C7.68134 3.44642 10.049 2.18644 12.6323 1.51927C11.5967 2.28761 10.6468 3.33623 9.82155 4.64047C8.04804 7.4433 7.04278 11.1268 6.97206 15.0549H1.07067C1.19246 11.3403 2.83568 7.86435 5.73053 5.22505ZM5.73053 25.7753C2.85235 23.1511 1.21165 19.6997 1.07326 16.0091H6.97352C7.05394 19.9134 8.05767 23.5722 9.82155 26.3599C10.6468 27.6641 11.5967 28.7128 12.6323 29.4811C10.0489 28.8139 7.68121 27.5539 5.73053 25.7753ZM28.2695 25.7753C26.3188 27.5539 23.9511 28.8139 21.3677 29.4811C22.4033 28.7128 23.3533 27.6642 24.1785 26.3599C25.9425 23.5722 26.9462 19.9133 27.0265 16.0091H32.9268C32.7883 19.6997 31.1477 23.1511 28.2695 25.7753Z" fill="#192F01"/>
</g>
<defs>
<clipPath id="clip0_211_125">
<rect width="34" height="31" fill="white"/>
</clipPath>
</defs>
</svg>
